<?xml version="1.0" encoding="utf-8"?>
<!-- Generator: Adobe Illustrator 23.1.0, SVG Export Plug-In . SVG Version: 6.00 Build 0)  -->
<svg version="1.1" id="Layer_1" xmlns="http://www.w3.org/2000/svg" xmlns:xlink="http://www.w3.org/1999/xlink" x="0px" y="0px"
	 viewBox="0 0 581.43 662" style="enable-background:new 0 0 581.43 662;" xml:space="preserve">
<path d="M375,71c0,0-13-13,75-71c0,0-10,29-9,48c0,0,10-17,30-27c0,0-12,29,0,99c0,0,25,6,82,173c0,0,38.58,35.07,25.86,78.19
	c-4.89,16.58-18.03,29.46-34.51,34.69c-23.56,7.48-59.71,9.89-66.35-41.88c0,0-63-7-112-78c0,0-86,40-27,171c0,0,21.72,35.3,31,52
	c10,18,34,78,10,153c0,0-219-1-312-167c0,0-59-111-6-208c0,0-32,2-62,27c0,0,7-76,172-179c0,0-16-6-63,4C109,139,222,29,375,71z"/>
</svg>
